<svg xmlns="http://www.w3.org/2000/svg" viewBox="0 0 64 64">
	<defs>
		<style>
			.cls-2{fill:#f1f2f2}.cls-3{fill:#f27121}.cls-4{fill:#565656}.cls-5,.cls-6{fill:none;stroke-linejoin:round;stroke-width:2px}.cls-5,.cls-6,.cls-7{stroke:#000}.cls-5,.cls-7{stroke-linecap:round}.cls-7{stroke-miterlimit:10;stroke-width:0}
		</style>
	</defs>
	<g style="isolation:isolate">
		<g id="Layer_1" data-name="Layer 1">
			<g id="Vector">
				<path class="cls-2" d="M25.43 27.62H38a14.54 14.54 0 1 0-12.58 0zM29.24 33.25h-7.09a2 2 0 0 1-1.3-.49 17.54 17.54 0 1 0 21.75 0 2 2 0 0 1-1.3.49h-6.6" />
				<circle class="cls-3" cx="31.72" cy="15.37" r="1.8" />
				<path class="cls-3" d="M29.31 33.24H22.4a1.93 1.93 0 0 1-1.93-1.93v-1.76a1.93 1.93 0 0 1 1.93-1.93H41a1.92 1.92 0 0 1 2 1.93v1.76a1.92 1.92 0 0 1-2 1.93h-6.38" />
				<path class="cls-3" d="M28.29 27.78s1.93 14.78 7.29 19.5c0 0 1.93.21 5.36-3.43 0 0-6.65-5.36-7.61-16.07" />
				<path class="cls-3" d="M29.31 33.24s-3 5.1-5.3 6.33l3.22 3.26s-.14 1 3.88-3.26" />
				<circle class="cls-4" cx="31.72" cy="49.14" r="1.86" />
				<circle class="cls-4" cx="31.72" cy="56.17" r="1.86" />
			</g>
			<g id="Line">
				<path class="cls-5" d="M29.31 33.24H22.4a1.93 1.93 0 0 1-1.93-1.93v-1.76a1.93 1.93 0 0 1 1.93-1.93H41a1.92 1.92 0 0 1 2 1.93v1.76a1.92 1.92 0 0 1-2 1.93h-6.38" />
				<path class="cls-5" d="M25.43 27.62H38a14.54 14.54 0 1 0-12.58 0z" />
				<path class="cls-6" d="M14.77 51A17.54 17.54 0 1 0 42.6 32.76a2 2 0 0 1-1.3.49h-6.6M29.24 33.25h-7.09a2 2 0 0 1-1.3-.49A17.48 17.48 0 0 0 14.25 45" />
				<path class="cls-5" d="M33.33 27.78c1 10.71 7.61 16.07 7.61 16.07-3.43 3.64-5.36 3.43-5.36 3.43-5.36-4.72-7.29-19.5-7.29-19.5" />
				<path class="cls-5" d="M29.31 33.24s-3 5.1-5.3 6.33l3.22 3.26s-.14 1 3.88-3.26" />
				<circle class="cls-5" cx="31.72" cy="49.14" r="1.86" />
				<circle class="cls-5" cx="31.72" cy="56.17" r="1.86" />
				<path class="cls-5" d="M17.61 36.11 9.06 24.24l-1.6-2.3" />
				<path class="cls-5" d="m5.15 28.47 7.28.44 2.47-6.97M46.39 36.11l8.55-11.87 1.6-2.3" />
				<path class="cls-5" d="m58.85 28.47-7.28.44-2.47-6.97" />
				<circle class="cls-7" cx="26.65" cy="10.43" r="2.11" />
				<circle class="cls-7" cx="36.8" cy="10.43" r="2.11" />
				<path class="cls-5" d="M28.42 20.44a4.33 4.33 0 0 0 6.61 0" />
			</g>
			<g style="mix-blend-mode:multiply">
				<g style="opacity:.25" id="Shadow">
					<path d="M35.36 2.59a21.26 21.26 0 0 1 2 15.53c-.87 3.32-2.57 6.65-1.87 10a11.8 11.8 0 0 0 2.87 5.11H41a1.92 1.92 0 0 0 2-1.92v-1.76a1.92 1.92 0 0 0-2-1.93h-3A14.53 14.53 0 0 0 33.7.12a21.32 21.32 0 0 1 1.66 2.47z" />
					<path d="M31.72 64A17.52 17.52 0 0 0 42.6 32.76a2 2 0 0 1-1.3.49h-3a32.7 32.7 0 0 1 4 5.19 11.33 11.33 0 0 1-4.51 14.82c-5.61 3-13.22.81-18.23 4.71a6.84 6.84 0 0 0-.64.55A17.46 17.46 0 0 0 31.72 64z" />
				</g>
			</g>
		</g>
	</g>
</svg>
