<svg xmlns="http://www.w3.org/2000/svg" viewBox="0 0 512 512" style="enable-background:new 0 0 512 512" xml:space="preserve">
	<path style="fill:#836948" d="m454.307 396.117 38.896-13.736c6.19-2.186 9.436-8.975 7.25-15.166l-10.084-28.556-61.311 21.651 10.084 28.556c2.186 6.192 8.975 9.437 15.165 7.251zM362.852 454.117H148.747c-7.036 0-12.74-5.704-12.74-12.74v-37.398h239.586v37.398c-.001 7.035-5.704 12.74-12.741 12.74zM58.248 396.314l-40.005-14.127c-5.884-2.078-8.969-8.531-6.891-14.415l13.46-38.117 61.311 21.651-13.46 38.117c-2.078 5.883-8.531 8.968-14.415 6.891z" />
	<path style="fill:#c2ad90" d="M177.567 57.882H162.96a49.374 49.374 0 0 0-45.616 30.478L13.297 339.494l75.61 26.7 55.689-173.566-32.717 197.293c0 13.825 11.312 25.137 25.137 25.137h237.862c13.825 0 25.137-11.312 25.137-25.137l-32.087-195.666 55.167 171.939 75.61-26.7L394.694 88.45a49.508 49.508 0 0 0-17.05-21.402 49.517 49.517 0 0 0-28.703-9.166H177.567z" />
	<path style="fill:#e5ceb1" d="M177.567 57.882c0 43.288 35.092 78.379 78.379 78.379s78.379-35.092 78.379-78.379H177.567z" />
	<path style="fill:#836948" d="M206.027 57.882c0 27.569 22.35 49.919 49.919 49.919s49.919-22.35 49.919-49.919h-99.838z" />
	<g style="opacity:.38">
		<path style="fill:#836948" d="m124.134 315.93 7.392-44.574-7.392 44.574z" />
		<path style="fill:#836948" d="m131.527 271.355-7.393 44.575h263.731l-7.309-44.575z" />
	</g>
	<g style="opacity:.32">
		<path style="fill:#836948" d="M119.565 97.574a55.334 55.334 0 0 1 32.166-10.309H360.165a55.498 55.498 0 0 1 32.167 10.273 55.49 55.49 0 0 1 9.827 8.947l-7.471-18.033a49.524 49.524 0 0 0-45.752-30.568H162.953a49.377 49.377 0 0 0-45.616 30.477l-7.496 18.091a55.272 55.272 0 0 1 9.724-8.878z" />
	</g>
	<g style="opacity:.53">
		<path style="fill:#836948" d="m115.002 371.086-3.124 18.836c0 13.825 11.311 25.137 25.137 25.137h237.862c13.825 0 25.137-11.311 25.137-25.137l-3.089-18.836H115.002z" />
	</g>
	<g style="opacity:.3">
		<path style="fill:#836948" d="M144.596 192.628c-.754 2.35-80.093 164.948-80.093 164.948l24.405 8.618 55.688-173.566z" />
	</g>
	<g style="opacity:.3">
		<path style="fill:#836948" d="M367.416 192.628c.754 2.35 80.093 164.948 80.093 164.948l-24.405 8.618-55.688-173.566z" />
	</g>
	<path d="m511.566 375.898-10.329-29.25a7.592 7.592 0 0 0 4.478-10.06L401.706 85.547a57.023 57.023 0 0 0-19.663-24.683c-9.723-6.916-21.17-10.571-33.101-10.571H162.96c-11.942 0-23.393 3.669-33.113 10.613a56.894 56.894 0 0 0-19.514 24.549L6.285 336.587a7.592 7.592 0 0 0 4.478 10.06L.434 375.897a7.593 7.593 0 0 0 4.629 9.684l61.311 21.651a7.6 7.6 0 0 0 5.802-.309 7.593 7.593 0 0 0 3.883-4.321l10.329-29.249a7.59 7.59 0 0 0 9.748-4.84l24.011-74.835-15.755 95.003c-.068.41-.102.825-.102 1.242 0 15.07 10.241 27.786 24.128 31.572v32.623a7.59 7.59 0 0 0 7.59 7.59h239.586a7.59 7.59 0 0 0 7.59-7.59v-32.54c14.035-3.686 24.42-16.479 24.42-31.656 0-.411-.033-.823-.1-1.229l-15.513-94.592 23.875 74.411a7.59 7.59 0 0 0 9.748 4.84l10.329 29.249a7.59 7.59 0 0 0 9.685 4.63l61.311-21.651a7.584 7.584 0 0 0 4.627-9.682zM297.594 65.472c-3.586 19.732-20.897 34.739-41.647 34.739S217.886 85.203 214.3 65.472h83.294zm-98.641 0c3.728 28.134 27.856 49.919 56.992 49.919 29.136 0 53.264-21.785 56.992-49.919h13.393c-3.798 35.478-33.916 63.199-70.384 63.199s-66.587-27.722-70.384-63.199h13.391zM64.272 390.391l-46.998-16.596 7.775-22.016 46.997 16.596-7.774 22.016zm303.731 56.136H143.597v-23.88h224.406v23.88zm7.15-254.59a7.588 7.588 0 0 0-9.006-5.06 7.59 7.59 0 0 0-5.712 8.607l31.979 195c-.299 9.416-8.051 16.983-17.538 16.983H137.015c-9.484 0-17.236-7.565-17.538-16.976l32.606-196.622a7.59 7.59 0 0 0-14.715-3.56l-53.3 166.126-60.694-21.434L124.357 91.262a41.736 41.736 0 0 1 14.315-18.007 41.56 41.56 0 0 1 24.29-7.784h7.371c3.858 43.859 40.771 78.379 85.615 78.379s81.757-34.52 85.615-78.379h7.381c8.76 0 17.164 2.684 24.304 7.762a41.884 41.884 0 0 1 14.437 18.123l100.944 243.646-60.694 21.434-52.782-164.499zm72.575 198.454-7.774-22.016 46.997-16.596 7.775 22.016-46.998 16.596z" />
</svg>
