<svg version="1.1" id="safety_x5F_icons_1_" xmlns="http://www.w3.org/2000/svg" x="0" y="0" viewBox="0 0 128 128" style="enable-background:new 0 0 128 128" xml:space="preserve">
	<style>
		.st0,.st1{display:none}.st0{fill:#141414}.st1{fill-rule:evenodd;clip-rule:evenodd}.st1,.st2,.st4{fill:#141414}.st2{fill-rule:evenodd;clip-rule:evenodd}.st4{display:inline}
	</style>
	<g id="row2_1_">
		<g id="boot_1_">
			<path id="icon_12_" class="st2" d="M128 18.2H72.2s3.1 69.6 1.5 71.9c-1.6 2.3-5 1.8-5 1.8l-22.3-2.2c-8.2 0-14.8 6.6-14.8 14.8 0 19.8 33.3 15.4 38.6 15.4 10.9 0 29.8-7 29.8-7v7h21l7-101.7z" />
			<path id="icon_10_" class="st2" d="M30.1 97.9c-7.2.5-13.5-.3-17.8-2.5-14.4-7.5-2.8-18.9 3.3-18 6.8 1.1 31.3 5.8 31.7-2.6.5-10.7-1.7-61.9-1.7-61.9h45.6v1.8h5.3v-7H40.6s3.1 62.5 1.5 64.9c-1.6 2.3-5 1.8-5 1.8l-22.3-2.2C6.6 72.1 0 78.8 0 87c0 13.8 18.4 16.1 30 15.8 0-3.6.1-2.3.1-4.9z" />
		</g>
	</g>
</svg>
