<svg xmlns="http://www.w3.org/2000/svg" viewBox="0 0 512 512">
	<path d="m416.817 268.7-79.05-151.885a45.008 45.008 0 0 0-15.281-17.471 40.623 40.623 0 0 0-.74-12.449 26.018 26.018 0 0 0-18.095-19.343 26.54 26.54 0 0 0-26.288 6.242 5.486 5.486 0 0 0-.685.79l-21.889 30.746-21.88-30.737a5.474 5.474 0 0 0-.685-.79 26.678 26.678 0 0 0-44.562 13.881 41.885 41.885 0 0 0-.404 13.285 44.902 44.902 0 0 0-13.024 15.846L95.184 268.7a5.5 5.5 0 0 0 2.627 7.558l52.952 23.749a5.5 5.5 0 1 0 4.502-10.037l-47.633-21.364 76.39-146.773c.022-.041.043-.083.064-.126a34.272 34.272 0 0 1 30.606-19.114 5.5 5.5 0 0 0 0-11 44.749 44.749 0 0 0-16.773 3.282 27.679 27.679 0 0 1 .524-5.007 15.341 15.341 0 0 1 10.585-11.72 15.558 15.558 0 0 1 15.247 3.284l18.347 25.774a41.681 41.681 0 0 1-13.253-4.673 5.5 5.5 0 1 0-5.6 9.467 42.353 42.353 0 0 0 5.458 2.683l-9.565 61.474a5.5 5.5 0 1 0 10.87 1.692l9.333-59.99a76.979 76.979 0 0 0 29.848 0l9.333 59.99a5.5 5.5 0 1 0 10.87-1.692l-9.565-61.474a42.37 42.37 0 0 0 5.458-2.684 5.5 5.5 0 1 0-5.6-9.467 41.664 41.664 0 0 1-13.252 4.673l18.355-25.781a15.658 15.658 0 0 1 15.158-3.342 15.139 15.139 0 0 1 10.547 11.24 26.811 26.811 0 0 1 .607 4.644 44.623 44.623 0 0 0-14.317-2.374 5.5 5.5 0 0 0 0 11 34.272 34.272 0 0 1 30.607 19.115c.02.043.042.085.063.126l76.39 146.773-47.802 21.44a5.5 5.5 0 1 0 4.502 10.037l53.122-23.826a5.5 5.5 0 0 0 2.627-7.557z" />
	<path d="M329.571 171.679a5.5 5.5 0 1 0-10.931 1.222l29.29 261.73h-86.607V144.866a5.5 5.5 0 1 0-11 0v289.765h-86.608l29.29-261.73a5.5 5.5 0 1 0-10.93-1.223L152.1 439.52a5.5 5.5 0 0 0 5.466 6.112H354.08a5.5 5.5 0 0 0 5.466-6.112z" />
</svg>
