<svg xmlns="http://www.w3.org/2000/svg" viewBox="0 0 512.001 512.001" style="enable-background:new 0 0 512.001 512.001" xml:space="preserve">
	<path style="fill:#62dcd2" d="m367.096 43.688 6.288-.612c72.073-7.015 133.491 51.759 129.651 124.069l-10.697 201.45c-3.003 56.567-49.747 100.894-106.393 100.894-57.779 0-105.029-46.055-106.508-103.815l-5.545-216.587c-1.388-54.141 39.3-100.152 93.204-105.399z" />
	<path style="fill:#92f4ea" d="M378.015 42.726c63.648 3.776 114.444 58.462 110.942 124.42L478.26 368.597c-2.881 54.256-46.007 97.225-99.509 100.647 2.378.158 4.776.246 7.194.246 56.647 0 103.389-44.327 106.393-100.893l10.697-201.451c3.757-70.757-54.97-128.541-125.02-124.42z" />
	<path style="fill:#54ccc0" d="M305.246 365.674 299.7 149.087C298.313 94.946 339 48.935 392.904 43.688l4.937-.481a119.128 119.128 0 0 0-24.457-.131l-6.288.612c-53.904 5.247-94.591 51.257-93.204 105.399l5.547 216.587c1.479 57.76 48.728 103.815 106.508 103.815 4.328 0 8.589-.289 12.786-.792-51.701-6.305-92.121-49.668-93.487-103.023z" />
	<path style="fill:#62dcd2" d="m144.907 43.688-6.288-.612C66.546 36.06 5.128 94.834 8.968 167.146l10.697 201.451c3.003 56.567 49.747 100.894 106.393 100.894 57.779 0 105.029-46.055 106.508-103.815l5.545-216.587c1.387-54.143-39.3-100.154-93.204-105.401z" />
	<path style="fill:#92f4ea" d="m144.907 43.688-6.288-.612a119.702 119.702 0 0 0-19.292-.318c1.343.086 2.69.187 4.041.318l6.288.612c53.904 5.247 94.591 51.257 93.204 105.399l-5.545 216.587c-1.411 55.129-44.518 99.592-98.68 103.529 2.455.17 4.925.286 7.422.286 57.779 0 105.029-46.055 106.508-103.815l5.545-216.587c1.388-54.141-39.299-100.152-93.203-105.399z" />
	<path style="fill:#54ccc0" d="M43.973 368.597 33.276 167.146C29.867 102.941 77.906 49.414 139.169 43.13l-.55-.054C66.546 36.06 5.128 94.834 8.968 167.146l10.697 201.451c3.004 56.567 49.747 100.893 106.393 100.893 4.139 0 8.222-.244 12.24-.704-51.079-5.772-91.538-47.697-94.325-100.189z" />
	<path style="fill:#5a6572" d="M385.946 435.417c-18.918 0-36.82-7.246-50.407-20.403-13.723-13.288-21.56-31.489-22.067-51.25l-2.568-100.312c-.533-20.787 7.167-40.434 21.681-55.324 14.514-14.891 33.959-23.091 54.752-23.091 21.193 0 40.895 8.469 55.48 23.847 14.582 15.377 21.994 35.501 20.87 56.665l-5.375 101.24c-2.042 38.482-33.83 68.628-72.366 68.628zM126.037 435.417c18.918 0 36.82-7.246 50.407-20.403 13.723-13.288 21.56-31.489 22.067-51.25l2.568-100.312c.533-20.787-7.167-40.434-21.681-55.324-14.514-14.891-33.959-23.091-54.752-23.091-21.193 0-40.895 8.469-55.48 23.847-14.582 15.377-21.994 35.501-20.87 56.665l5.375 101.24c2.043 38.482 33.83 68.628 72.366 68.628z" />
	<path style="fill:#62dcd2" d="m200.859 272.175-.856 33.47c-9.514-7.144-19.157-12.388-28.73-16.107a111.414 111.414 0 0 0-22.29-6.053c-16.67-2.733-32.66-1.513-46.925 1.549-23.474 5.044-42.256 15.098-51.63 20.835l-1.748-33.012c8.646-5.467 28.343-16.541 53.378-21.926 14.265-3.062 30.255-4.282 46.925-1.537a110.259 110.259 0 0 1 22.29 6.065c9.853 3.799 19.79 9.243 29.586 16.716zM463.3 272.855l-1.748 33.012c-6.241-3.813-16.659-9.549-29.845-14.441-6.757-2.522-14.254-4.81-22.29-6.499-15.274-3.238-32.531-4.317-50.445-.704-15.438 3.097-31.381 9.69-46.996 21.421l-.856-33.469c15.884-12.118 32.132-18.899 47.852-22.055 17.914-3.613 35.171-2.522 50.445.704 8.036 1.701 15.532 3.989 22.29 6.499 14.512 5.384 25.657 11.79 31.593 15.532z" />
	<path style="fill:#54ccc0" d="M358.973 250.12v34.103c-15.438 3.097-31.381 9.69-46.996 21.421l-.856-33.469c15.885-12.119 32.132-18.9 47.852-22.055zM102.057 250.929v34.103c-23.474 5.044-42.256 15.098-51.63 20.835l-1.748-33.012c8.647-5.467 28.344-16.541 53.378-21.926z" />
	<path style="fill:#92f4ea" d="M431.708 257.323v34.103c-6.757-2.522-14.254-4.81-22.29-6.499v-34.103c8.036 1.701 15.532 3.988 22.29 6.499zM171.272 255.457v34.08a111.414 111.414 0 0 0-22.29-6.053v-34.091a110.154 110.154 0 0 1 22.29 6.064z" />
	<path d="M472.759 69.007A127.015 127.015 0 0 0 372.53 34.32l-6.287.612c-28.292 2.753-54.245 15.998-73.076 37.293-18.831 21.295-28.802 48.672-28.073 77.088l5.547 216.587c.773 30.243 13.131 58.528 34.795 79.644 21.664 21.116 50.256 32.746 80.509 32.746 54.324 0 101.802-38.544 112.894-91.65.994-4.757-2.058-9.418-6.815-10.412-4.749-.992-9.417 2.056-10.412 6.814-9.397 44.993-49.633 77.65-95.67 77.65-25.638 0-49.866-9.855-68.225-27.749s-28.831-41.864-29.488-67.493l-5.547-216.587c-.612-23.954 7.792-47.031 23.664-64.981 15.874-17.95 37.75-29.114 61.599-31.435l6.287-.612a109.456 109.456 0 0 1 86.357 29.888 109.44 109.44 0 0 1 33.655 84.958l-9.958 187.606c-.258 4.852 3.467 8.994 8.32 9.253 4.845.246 8.994-3.467 9.252-8.32l9.961-187.606a127.02 127.02 0 0 0-39.06-98.607zM145.759 34.932l-6.288-.611c-25.491-2.481-50.767 2.647-73.092 14.832a8.797 8.797 0 0 0-3.508 11.938c2.326 4.266 7.671 5.836 11.938 3.508 19.218-10.489 40.989-14.902 62.957-12.764l6.288.611c23.849 2.322 45.725 13.485 61.598 31.435s24.277 41.027 23.663 64.981l-5.545 216.587c-.657 25.628-11.128 49.598-29.488 67.493-18.357 17.894-42.588 27.749-68.225 27.749-51.977 0-94.851-40.657-97.607-92.561L17.753 166.679c-1.74-32.773 11.132-64.305 35.315-86.514a8.8 8.8 0 0 0-11.904-12.961C13.1 92.978-1.838 129.575.181 167.612l10.697 201.451c3.252 61.248 53.844 109.226 115.179 109.226 30.253 0 58.844-11.629 80.509-32.746 21.663-21.116 34.021-49.401 34.794-79.643l5.547-216.587c.729-28.417-9.242-55.794-28.073-77.088-18.83-21.295-44.783-34.54-73.075-37.293z" />
	<path d="m302.109 263.678 2.568 100.312c.564 22.08 9.352 42.444 24.74 57.345 15.238 14.754 35.314 22.881 56.529 22.881 43.216 0 78.863-33.805 81.153-76.96l5.375-101.24c1.253-23.598-7.012-46.037-23.271-63.186-16.262-17.148-38.234-26.591-61.864-26.591-23.187 0-44.869 9.145-61.053 25.748-16.186 16.604-24.771 38.512-24.177 61.691zm151.397 27.695c-27.225-13.64-80.713-31.988-133.132-1.797l-.333-13.025c54.01-38.175 111.891-11.92 134.195 1.095l-.73 13.727zm-67.56 135.245c-16.621 0-32.349-6.367-44.287-17.925-12.056-11.675-18.943-27.711-19.391-45.154l-1.369-53.477c23.652-16.434 50.499-22.424 79.886-17.792 22.112 3.487 40.621 12.202 51.693 18.467l-2.952 55.585c-1.794 33.811-29.722 60.296-63.58 60.296zm1.391-232.783c18.754 0 36.19 7.494 49.096 21.102 11.254 11.869 17.678 26.932 18.478 43.013-12.224-6.303-29.27-13.348-49.201-16.796-31.192-5.398-59.972-.506-85.781 14.539 1.305-15.569 7.882-30.062 18.957-41.423 12.843-13.178 30.05-20.435 48.451-20.435zM62.782 202.829c-16.26 17.148-24.524 39.587-23.271 63.186l5.375 101.24c2.29 43.155 37.937 76.96 81.153 76.96 21.215 0 41.29-8.126 56.527-22.881 15.389-14.9 24.176-35.266 24.743-57.345l2.567-100.312c.595-23.179-7.991-45.087-24.175-61.69-16.185-16.605-37.866-25.748-61.053-25.748-23.633-.001-45.604 9.443-61.866 26.59zm107.542 205.864c-11.937 11.559-27.665 17.925-44.286 17.925-33.858 0-61.785-26.485-63.58-60.296l-2.952-55.584a166.59 166.59 0 0 1 22.265-10.482 8.796 8.796 0 0 0 5.069-11.363 8.796 8.796 0 0 0-11.364-5.07 184.799 184.799 0 0 0-17 7.523l-.727-13.701c22.304-13.016 80.186-39.268 134.195-1.093l-.334 13.049c-27.318-15.655-58.598-20.225-91.402-13.173a8.799 8.799 0 0 0 3.697 17.204c32.231-6.929 61.537-1.394 87.18 16.432l-1.369 53.476c-.448 17.443-7.334 33.478-19.392 45.153zm-45.678-214.858c18.402 0 35.608 7.257 48.452 20.434 11.074 11.361 17.652 25.855 18.957 41.423-25.807-15.043-54.585-19.935-85.781-14.539-19.932 3.449-36.977 10.493-49.201 16.796.8-16.08 7.224-31.143 18.478-43.012 12.906-13.608 30.341-21.102 49.095-21.102zM96.681 89.447c-3.084-2.035-7.244-1.938-10.195.306-3.081 2.344-4.297 6.563-2.894 10.179 1.305 3.36 4.598 5.633 8.208 5.632 3.759-.001 7.161-2.479 8.342-6.039 1.244-3.742-.221-7.865-3.461-10.078zM131.594 93.401c-3.024-7.147-13.505-7.07-16.326.201-2.933 7.556 5.521 14.783 12.536 10.821 3.799-2.145 5.489-6.987 3.79-11.022zM163.269 93.401c-1.492-3.525-5.149-5.772-8.986-5.387-3.826.384-6.987 3.27-7.767 7.031-1.554 7.503 7.08 13.225 13.437 9.088 3.495-2.276 4.94-6.876 3.316-10.732zM99.11 151.717c-2.15-3.271-6.369-4.683-10.071-3.468-3.492 1.146-5.938 4.458-6.03 8.133-.192 7.76 9.493 11.939 15.01 6.433 2.924-2.916 3.413-7.663 1.091-11.098zM130.785 151.717c-4.282-6.512-14.647-4.25-15.98 3.372-1.378 7.874 8.085 13.373 14.245 8.307 3.432-2.82 4.235-7.981 1.735-11.679zM155.151 147.799c-8.007 0-11.822 10.335-5.691 15.511 6.18 5.217 15.843-.374 14.333-8.34-.776-4.096-4.466-7.171-8.642-7.171zM80.843 119.362c-6.656-4.392-15.516 1.971-13.36 9.668 1.014 3.617 4.287 6.258 8.047 6.441 3.755.183 7.272-2.125 8.628-5.622 1.488-3.829.055-8.186-3.315-10.487zM112.518 119.362c-3.084-2.035-7.244-1.938-10.195.306-3.017 2.296-4.258 6.402-2.972 9.979 1.221 3.396 4.464 5.737 8.07 5.828 3.605.09 6.952-2.108 8.334-5.426 1.608-3.854.186-8.35-3.237-10.687zM166.095 134.003c2.974 1.958 6.902 1.944 9.845-.059 3.201-2.179 4.609-6.347 3.389-10.021-2.415-7.28-12.745-8.05-16.2-1.193-1.985 3.942-.654 8.795 2.966 11.273zM144.193 119.362c-3.19-2.105-7.51-1.915-10.466.522-2.713 2.236-3.874 5.984-2.835 9.353 1.109 3.599 4.438 6.144 8.206 6.239 3.758.095 7.222-2.301 8.491-5.828 1.361-3.788-.094-8.031-3.396-10.286zM364.976 93.401c-2.862-7.168-13.32-6.997-16.248 0-1.506 3.6-.359 7.92 2.723 10.31 2.841 2.203 6.829 2.445 9.922.607 3.682-2.188 5.277-6.964 3.603-10.917zM396.651 93.401c-1.269-3.179-4.468-5.301-7.861-5.415-3.854-.129-7.397 2.371-8.606 6.023-2.479 7.487 5.826 14.281 12.685 10.405 3.795-2.144 5.49-6.979 3.782-11.013zM428.326 93.401c-2.858-7.156-13.334-7.013-16.248 0-1.498 3.605-.364 7.916 2.723 10.31 2.838 2.2 6.835 2.451 9.922.607 3.678-2.196 5.279-6.958 3.603-10.917zM364.168 151.717c-4.236-6.419-14.444-4.338-15.944 3.167-1.601 8.012 8.156 13.714 14.347 8.401 3.33-2.855 4.056-7.917 1.597-11.568zM395.843 151.717c-4.163-6.308-14.17-4.422-15.876 2.893-.852 3.653.797 7.623 4.041 9.536 3.163 1.865 7.207 1.585 10.062-.721 3.476-2.806 4.274-7.995 1.773-11.708zM425.089 149.289c-3.095-2.113-7.357-1.899-10.299.378-2.826 2.187-4.031 6.024-3.01 9.44 1.026 3.438 4.12 5.956 7.698 6.259 3.836.324 7.526-1.997 8.923-5.572 1.479-3.788.094-8.262-3.312-10.505zM345.902 119.362c-3.163-2.133-7.532-1.898-10.467.522-3.014 2.485-4.047 6.789-2.455 10.362 1.462 3.282 4.867 5.408 8.472 5.224 3.504-.179 6.612-2.478 7.824-5.762 1.395-3.784-.064-8.086-3.374-10.346zM377.577 119.362c-3.217-2.169-7.661-1.885-10.6.631-2.815 2.411-3.816 6.436-2.473 9.884 1.303 3.346 4.598 5.597 8.193 5.603 3.589.006 6.89-2.271 8.192-5.603 1.492-3.821.055-8.215-3.312-10.515zM431.154 134.003c6.733 4.432 15.675-2.109 13.302-9.875-1.032-3.377-4.037-5.84-7.549-6.2-3.741-.384-7.379 1.771-8.902 5.191-1.73 3.881-.34 8.502 3.149 10.884zM404.371 117.884c-3.597 0-6.914 2.276-8.205 5.632-1.398 3.636-.19 7.889 2.945 10.217 6.287 4.669 15.478-.996 13.883-8.775-.833-4.053-4.477-7.074-8.623-7.074z" />
</svg>
