<svg xmlns="http://www.w3.org/2000/svg" viewBox="0 0 512 512" style="enable-background:new 0 0 512 512" xml:space="preserve">
	<path style="fill:#997a54" d="M145.949 7.954h220.202V160.1H145.949z" />
	<path style="fill:#836948" d="M153.025 497.792c-9.429 9.429-24.716 9.429-34.145 0-9.429-9.429-9.429-24.716 0-34.145-9.429 9.429-24.716 9.429-34.145 0-9.429-9.429-9.429-24.716 0-34.145-9.429 9.429-24.716 9.429-34.145 0-9.429-9.429-9.429-24.716 0-34.145l-1.775-1.775c-9.429 9.429-24.716 9.429-34.145 0-9.429-9.429-9.429-24.716 0-34.145l103.028-103.028 138.355-138.355 110.099-110.1 116.522 116.522c12.058 12.058 12.058 31.609 0 43.666l-88.266 88.266-241.383 241.384z" />
	<path style="fill:#624d37" d="M225.51 425.306 87.154 286.951l49.31-49.272 131.549 143.958z" />
	<path style="fill:#c2ad90" d="M463.291 393.582c9.429 9.429 24.716 9.429 34.145 0 9.429-9.429 9.429-24.716 0-34.145L189.36 51.361 145.953 7.954 29.431 124.476c-12.058 12.058-12.058 31.609 0 43.666l329.65 329.65c9.429 9.429 24.716 9.429 34.145 0 9.429-9.429 9.429-24.716 0-34.145 9.429 9.429 24.716 9.429 34.145 0 9.429-9.429 9.429-24.716 0-34.145 9.429 9.429 24.716 9.429 34.145 0 9.429-9.429 9.429-24.716 0-34.145l1.775-1.775z" />
	<path transform="rotate(134.999 329.426 329.792)" style="fill:#997a54" d="M231.594 292.533h195.659v74.516H231.594z" />
	<path d="m502.709 353.636-97.628-97.628 82.868-82.868c7.267-7.268 11.269-16.929 11.269-27.207 0-10.277-4.002-19.939-11.269-27.206L371.454 2.227c-.04-.04-.083-.073-.124-.112a7.396 7.396 0 0 0-.427-.386c-.053-.044-.111-.081-.164-.123a7.47 7.47 0 0 0-.434-.321c-.046-.03-.094-.056-.141-.085a7.857 7.857 0 0 0-.5-.299c-.03-.016-.063-.029-.094-.046a7.494 7.494 0 0 0-.58-.274c-.018-.008-.038-.013-.057-.02a7.762 7.762 0 0 0-.642-.23c-.022-.007-.046-.011-.068-.017a7.118 7.118 0 0 0-.651-.163c-.061-.012-.124-.017-.186-.028-.183-.031-.365-.064-.552-.082a6.84 6.84 0 0 0-.759-.041H145.923c-.255 0-.508.013-.76.039-.187.018-.369.051-.552.082-.062.011-.125.016-.186.028-.221.044-.437.1-.651.163-.022.006-.046.01-.068.017-.218.066-.43.144-.64.229-.019.008-.04.013-.059.021a7.283 7.283 0 0 0-.579.274c-.031.016-.064.029-.095.046a7.857 7.857 0 0 0-.5.299c-.047.029-.095.055-.141.085-.15.1-.292.211-.434.321-.054.043-.112.079-.164.123a8.212 8.212 0 0 0-.427.386c-.041.039-.084.072-.124.112l-116.496 116.5c-15.001 15.002-15.001 39.411 0 54.414l82.869 82.869-25.148 25.148-.01.009-.009.01L9.29 353.636c-12.377 12.378-12.377 32.516.001 44.895 6.189 6.188 14.317 9.281 22.447 9.281a32.02 32.02 0 0 0 4.502-.319c-1.358 9.556 1.63 19.616 8.965 26.951 6.189 6.188 14.317 9.281 22.447 9.281.834 0 1.667-.041 2.5-.105a32.28 32.28 0 0 0-.106 2.514c0 8.479 3.302 16.452 9.297 22.447 6.189 6.189 14.318 9.282 22.448 9.282.834 0 1.667-.041 2.5-.105a32.28 32.28 0 0 0-.106 2.514c0 8.479 3.302 16.452 9.297 22.447 6.189 6.189 14.318 9.282 22.448 9.282 8.129 0 16.258-3.094 22.447-9.282l97.627-97.627 97.628 97.627c6.19 6.189 14.317 9.283 22.448 9.282 8.128-.001 16.258-3.095 22.446-9.282 5.996-5.995 9.298-13.967 9.298-22.447 0-.845-.042-1.681-.106-2.514.833.065 1.666.105 2.501.105 8.128-.001 16.258-3.095 22.446-9.282 5.996-5.995 9.298-13.967 9.298-22.447 0-.845-.042-1.681-.106-2.514.832.065 1.665.105 2.5.105 8.13 0 16.258-3.094 22.448-9.281 7.334-7.335 10.322-17.395 8.964-26.951a32.02 32.02 0 0 0 4.502.319c8.13 0 16.258-3.094 22.448-9.281 12.367-12.379 12.367-32.517-.01-44.895zM244.612 372.19l127.569-127.569 16.753 16.753.012.013.013.012 25.145 25.145-127.569 127.569-41.923-41.923zm239.396-226.259a23.11 23.11 0 0 1-6.815 16.451l-82.868 82.868-127.569-127.567 99.319-99.32 111.119 111.12a23.105 23.105 0 0 1 6.814 16.448zM164.285 15.212h183.427l-91.713 91.713-91.714-91.713zM34.805 129.483 145.923 18.361l104.692 104.693.006.007.007.006 110.796 110.796-127.569 127.57-110.798-110.799-.004-.005-.005-.004-88.243-88.242c-9.072-9.071-9.072-23.831 0-32.9zm89.428 362.477a16.424 16.424 0 0 1-4.841-11.69c0-4.416 1.719-8.568 4.842-11.691a7.607 7.607 0 0 0-10.757-10.757 16.42 16.42 0 0 1-11.69 4.842 16.429 16.429 0 0 1-11.692-4.842c-3.122-3.122-4.841-7.274-4.841-11.69s1.719-8.567 4.841-11.69a7.606 7.606 0 0 0-10.755-10.757c-6.446 6.445-16.936 6.447-23.382 0a16.421 16.421 0 0 1-4.842-11.691c0-4.415 1.719-8.567 4.842-11.69a7.607 7.607 0 0 0 0-10.757 7.642 7.642 0 0 0-.967-.808 7.63 7.63 0 0 0-.807-.965 7.606 7.606 0 0 0-10.756-.001c-6.445 6.445-16.934 6.447-23.382 0-6.447-6.446-6.447-16.935 0-23.381L87.138 297.3l127.568 127.568-67.091 67.091a16.42 16.42 0 0 1-11.69 4.842 16.41 16.41 0 0 1-11.692-4.841zm101.231-77.847L97.895 286.544l19.779-19.779 127.568 127.569-19.778 19.779zm266.49-26.34c-6.447 6.446-16.936 6.448-23.383 0a7.606 7.606 0 0 0-10.756.001 7.701 7.701 0 0 0-.807.965 7.572 7.572 0 0 0-.967.808 7.607 7.607 0 0 0 0 10.757 16.42 16.42 0 0 1 4.842 11.69c0 4.416-1.719 8.568-4.841 11.691-6.446 6.446-16.934 6.448-23.383 0a7.606 7.606 0 0 0-10.755 10.757c3.122 3.122 4.841 7.274 4.841 11.69s-1.719 8.567-4.842 11.69a16.421 16.421 0 0 1-11.691 4.842 16.424 16.424 0 0 1-11.69-4.842 7.607 7.607 0 0 0-10.757 10.757 16.421 16.421 0 0 1 4.842 11.691c0 4.415-1.719 8.567-4.842 11.69a16.421 16.421 0 0 1-11.691 4.842 16.424 16.424 0 0 1-11.69-4.842l-67.091-67.091L424.861 297.3l67.092 67.092c6.446 6.447 6.446 16.935.001 23.381z" />
</svg>
