<svg xmlns="http://www.w3.org/2000/svg" width="512" height="512" xml:space="preserve">
	<g>
		<path fill="#1B2736" d="M189.739 356.342c-9.93 0-20.198-.406-30.804-1.218-17.864-1.369-30.503-8.403-37.564-20.907-20.459-36.23 14.012-105.614 15.488-108.55a3.5 3.5 0 0 1 6.254 3.146c-.345.686-34.277 68.983-15.644 101.967 5.843 10.343 16.609 16.186 32.001 17.365 46.963 3.596 87.154-.915 119.461-13.413 41.719-16.14 70.701-45.866 86.141-88.353a3.5 3.5 0 1 1 6.578 2.391c-16.16 44.471-46.505 75.589-90.192 92.491-25.936 10.032-56.692 15.08-91.719 15.081z" />
		<path fill="#FFD161" d="M259.453 216.206s49.879-26.449 102.809-14.372c-1.34-56.173-47.264-101.307-103.76-101.307-46.773 0-86.311 30.935-99.299 73.458 28.967-2.913 61.265 35.159 100.25 42.221z" />
		<path fill="#FF6650" d="M259.453 152.439c-37.755-6.898-68.762-5.027-89.872-1.64-4.35 7.209-7.87 14.973-10.378 23.186 28.966-2.913 61.265 35.16 100.25 42.221 0 0 49.878-26.449 102.809-14.372a104.337 104.337 0 0 0-1.71-16.407c-24.535-11.338-60.921-25.648-101.099-32.988z" />
		<path fill="#FFB561" d="M259.453 152.439c40.178 7.34 76.564 21.65 101.099 32.988-7.308-39.674-37.142-71.443-75.765-81.527 26.513 21.447 58.967 50.371 60.034 64.233 0 0-131.704-45.801-175.239-17.334 21.108-3.387 52.116-5.258 89.871 1.64z" />
		<path fill="#FFD161" d="M496.33 234.531c-7.243-4.829-235.412-55.533-235.412-55.533-166.6-30.181-239.034 51.911-240.241 65.191-1.208 13.28 82.092-2.415 103.822-7.243 21.73-4.829 136.419 7.243 136.419 7.243s124.346 25.352 177.465 27.767c53.118 2.414 65.19-32.596 57.947-37.425z" />
		<path fill="#FFB561" d="M260.917 209.783s173.309 38.514 222.622 51.603c7.067-4.9 11.331-10.712 13.324-15.727l-.534-.263c-7.243-4.829-235.412-55.533-235.412-55.533-147.32-26.688-220.963 34.385-236.88 58.067 3.611 1.317 9.903 1.66 17.66 1.366 32.22-26.784 102.637-60.634 219.22-39.513z" />
		<path fill="#FFB561" d="M81.087 244.966c18.016-2.786 35.157-6.187 43.411-8.021 21.73-4.829 136.419 7.243 136.419 7.243s124.346 25.352 177.465 27.767c2.684.122 5.236.125 7.714.065-69.207-16.546-185.179-42.318-185.179-42.318-81.709-14.803-140.716-2.583-179.83 15.264z" />
		<path fill="#FFD161" d="M260.917 189.863s228.169 50.704 235.412 55.533l.534.263c2.09-5.26 1.704-9.636-.534-11.128-7.243-4.829-235.412-55.533-235.412-55.533-166.6-30.181-239.034 51.911-240.241 65.191-.154 1.691 1.076 2.907 3.361 3.741 15.917-23.682 89.56-84.755 236.88-58.067z" />
		<path fill="none" stroke="#FFB561" stroke-width="3" stroke-linecap="round" stroke-linejoin="round" stroke-miterlimit="10" d="m228.566 114.3-14.427 7.768M249.652 118.184l-1.11 13.872M259.596 125.12l5.471 11.375M275.177 125.12l19.046 19.543M301.811 132.056l5.549 12.607" />
		<path fill="#1B2736" d="M103.825 407.04c-8.705 0-16.791-4.261-24.081-12.702-7.372-8.535-9.505-16.308-6.342-23.102 10.27-22.055 75.981-21.838 83.452-21.739a3.5 3.5 0 0 1 3.089 5.054c-.985 1.987-24.457 48.696-52.651 52.266a27.332 27.332 0 0 1-3.467.223zm47.116-50.531c-21.96.327-64.734 3.808-71.193 17.683-1.895 4.071-.114 9.31 5.293 15.571 6.716 7.774 13.705 11.081 21.372 10.111 9.939-1.259 21.219-9.929 32.617-25.073 5.243-6.966 9.389-13.828 11.911-18.292z" />
		<path fill="#1B2736" d="M122.16 445.164a3.502 3.502 0 0 1-3.345-2.475c-.122-.398-2.998-9.9-4.05-22.902-.98-12.127-.465-29.678 7.559-44.422 6.925-12.723 18.205-21.381 33.528-25.735a3.5 3.5 0 1 1 1.912 6.733c-13.436 3.817-23.286 11.328-29.278 22.323-7.186 13.186-7.641 29.23-6.757 40.368.975 12.285 3.752 21.495 3.78 21.587a3.502 3.502 0 0 1-3.349 4.523z" />
		<path fill="#1B2736" d="M209.45 407.04c-1.146 0-2.302-.074-3.468-.222-28.194-3.57-51.666-50.279-52.651-52.266a3.501 3.501 0 0 1 3.089-5.054c7.464-.104 73.182-.317 83.451 21.739 3.164 6.794 1.03 14.567-6.342 23.102-7.288 8.44-15.374 12.701-24.079 12.701zm-47.116-50.543c6.739 11.912 25.025 40.912 44.533 43.377 7.666.972 14.653-2.339 21.366-10.111 5.407-6.262 7.188-11.501 5.293-15.572-5.861-12.589-44.545-17.363-71.192-17.694z" />
		<path fill="#1B2736" d="M191.114 445.165a3.5 3.5 0 0 1-3.347-4.526c.055-.18 2.809-9.36 3.779-21.585.884-11.138.429-27.182-6.757-40.368-5.992-10.995-15.843-18.505-29.278-22.323a3.5 3.5 0 1 1 1.912-6.733c15.323 4.354 26.604 13.012 33.528 25.735 8.023 14.744 8.539 32.294 7.559 44.422-1.052 13.001-3.928 22.504-4.05 22.902a3.502 3.502 0 0 1-3.346 2.476z" />
		<path fill="#2D415A" d="M160.089 368.128h-2.703a5.96 5.96 0 0 1-5.959-5.959v-13.254a5.96 5.96 0 0 1 5.959-5.959h2.703a5.96 5.96 0 0 1 5.959 5.959v13.254a5.96 5.96 0 0 1-5.959 5.959z" />
	</g>
</svg>
