<svg xmlns="http://www.w3.org/2000/svg" viewBox="0 0 512 512" style="enable-background:new 0 0 512 512" xml:space="preserve">
	<path style="fill:#e24f62" d="M140.362 278.299 73.409 469.561c-2.341 6.657-9.702 10.189-16.36 7.847L16.191 463.04c-6.657-2.341-10.189-9.702-7.847-16.36l105.315-291.515 26.703 123.134zM372.079 278.299l66.515 191.261c2.341 6.657 9.702 10.189 16.36 7.847l40.858-14.368c6.657-2.341 10.189-9.702 7.847-16.36L398.24 155.165l-26.161 123.134zM290.171 109.334h-68.446c-21.344 0-38.809-17.464-38.809-38.809V50.149c0-8.957 7.328-16.286 16.286-16.286h113.493c8.957 0 16.286 7.328 16.286 16.286v20.376c-.001 21.345-17.464 38.809-38.81 38.809z" />
	<path style="fill:#a53528" d="M289.931 94.001h-68.447c-21.344 0-38.809-17.464-38.809-38.809v15.333c0 21.344 17.464 38.809 38.809 38.809h68.446c21.344 0 38.809-17.464 38.809-38.809V55.194c-.001 21.344-17.464 38.807-38.808 38.807z" />
	<path style="fill:#a53528" d="M248.331 33.865h15.225v75.465h-15.225z" />
	<path style="fill:#e24f62" d="M381.924 428.536H129.972c-11.888 0-21.614-9.727-21.614-21.615V182.414c0-40.194 32.886-73.08 73.08-73.08h149.02c40.194 0 73.08 32.886 73.08 73.08v224.507c.001 11.888-9.726 21.615-21.614 21.615z" />
	<path style="fill:#a53528" d="M230.731 109.336h50.44v319.198h-50.44z" />
	<g style="opacity:.3">
		<path style="fill:#e24f62" d="M243.408 109.336h25.091v319.198h-25.091z" />
	</g>
	<path style="fill:#a53528" d="M367.225 394.287h-44.968c-7.257 0-13.195-5.938-13.195-13.195v-44.968c0-7.257 5.938-13.195 13.195-13.195h44.968c7.257 0 13.195 5.938 13.195 13.195v44.968c0 7.257-5.938 13.195-13.195 13.195zM193.593 394.287h-44.968c-7.257 0-13.195-5.938-13.195-13.195v-44.968c0-7.257 5.938-13.195 13.195-13.195h44.968c7.257 0 13.195 5.938 13.195 13.195v44.968c0 7.257-5.938 13.195-13.195 13.195zM108.359 189.354h67.166a7.613 7.613 0 0 1 0 15.226h-67.166v-15.226zM108.359 263.073h67.166a7.613 7.613 0 0 1 0 15.226h-67.166v-15.226zM403.539 204.579h-67.167c-4.205 0-7.613-3.408-7.613-7.613s3.407-7.613 7.613-7.613h67.167v15.226zM403.539 278.299h-67.167c-4.205 0-7.613-3.408-7.613-7.613s3.407-7.613 7.613-7.613h67.167v15.226z" />
	<path style="fill:#bf3034" d="M360.598 468.227H152.251a4.06 4.06 0 0 1-4.06-4.06v-35.631h216.468v35.631a4.062 4.062 0 0 1-4.061 4.06z" />
	<g style="opacity:.3">
		<path style="fill:#e24f62" d="M206.788 356.578H135.43a7.613 7.613 0 0 1 0-15.226h71.358a7.613 7.613 0 0 1 0 15.226z" />
	</g>
	<g style="opacity:.3">
		<path style="fill:#e24f62" d="M380.421 356.578h-71.359a7.612 7.612 0 0 1-7.613-7.613 7.612 7.612 0 0 1 7.613-7.613h71.359a7.614 7.614 0 0 1 0 15.226z" />
	</g>
	<path style="fill:#a53528" d="m403.539 367.866 13.983 40.208V207.593l-13.983-38.667zM94.375 410.56l13.984-39.945V170.727l-13.984 38.707zM148.191 428.534h216.47v16.362h-216.47z" />
	<path d="M322.257 315.316c-11.474 0-20.808 9.334-20.808 20.808v44.968c0 11.474 9.334 20.808 20.808 20.808h44.969c11.474 0 20.808-9.334 20.808-20.808v-44.968c0-11.474-9.334-20.808-20.808-20.808h-44.969zm44.969 71.357h-44.969a5.59 5.59 0 0 1-5.583-5.583v-24.513h56.134v24.513a5.588 5.588 0 0 1-5.582 5.583zm5.583-50.55v5.229h-56.134v-5.229a5.59 5.59 0 0 1 5.583-5.583h44.969a5.59 5.59 0 0 1 5.582 5.583zM193.593 401.898c11.474 0 20.808-9.334 20.808-20.808v-44.968c0-11.474-9.334-20.808-20.808-20.808h-44.968c-11.474 0-20.808 9.334-20.808 20.808v44.968c0 11.474 9.334 20.808 20.808 20.808h44.968zm-44.969-71.357h44.968a5.589 5.589 0 0 1 5.583 5.583v5.229h-56.133v-5.229a5.588 5.588 0 0 1 5.582-5.583zm-5.583 50.55v-24.513h56.133v24.513a5.59 5.59 0 0 1-5.583 5.583h-44.968a5.59 5.59 0 0 1-5.582-5.583z" />
	<path d="M510.824 444.107 406.151 152.592a7.566 7.566 0 0 0-2.019-3.033c-12.607-28.16-40.876-47.839-73.674-47.839h-5.94c7.498-8.248 12.073-19.198 12.073-31.196V50.149c0-13.177-10.72-23.897-23.897-23.897H199.203c-13.177 0-23.897 10.72-23.897 23.897v20.376c0 11.998 4.576 22.948 12.073 31.196h-5.94c-32.869 0-61.191 19.764-73.757 48.024a7.555 7.555 0 0 0-1.828 2.847L1.162 444.154c-1.807 5.138-1.499 10.684.867 15.616 2.366 4.933 6.498 8.644 11.636 10.45l40.858 14.368a20.336 20.336 0 0 0 6.764 1.159c8.435 0 16.35-5.264 19.303-13.662l20.788-59.117c2.794 13.222 14.551 23.179 28.594 23.179h10.606v32.078a7.613 7.613 0 0 0 7.613 7.613H364.66a7.612 7.612 0 0 0 7.613-7.613v-32.078h9.654c14.108 0 25.913-10.048 28.635-23.362l20.853 59.301c2.954 8.398 10.868 13.662 19.304 13.662 2.245 0 4.528-.374 6.763-1.159l40.858-14.368c5.138-1.807 9.27-5.518 11.636-10.449 2.363-4.934 2.672-10.48.848-15.665zM321.367 50.149v20.376c0 17.201-13.994 31.196-31.195 31.196h-26.611V41.477h49.134c4.782 0 8.672 3.891 8.672 8.672zm-83.026 370.775V116.947h35.214v303.976h-35.214v.001zM190.529 70.525V50.149c0-4.782 3.89-8.672 8.672-8.672h49.134v60.244h-26.61c-17.201.001-31.196-13.994-31.196-31.196zM66.228 467.035c-.938 2.667-3.986 4.129-6.653 3.191l-40.859-14.368a5.184 5.184 0 0 1-2.96-2.672c-.607-1.266-.689-2.679-.249-3.933l85.238-237.386v157.01l-34.517 98.158zm49.743-60.113V182.414c0-36.099 29.369-65.468 65.468-65.468h41.677v303.976h-93.142c-7.722.002-14.003-6.28-14.003-14zm241.075 53.692H155.803v-24.466h201.244l-.001 24.466zm38.88-53.692c0 7.72-6.281 14.002-14.002 14.002H288.78V116.947H330.458c36.099 0 65.468 29.369 65.468 65.468v224.508zm100.32 46.264a5.174 5.174 0 0 1-2.96 2.672l-40.858 14.368c-2.667.935-5.713-.523-6.653-3.191l-34.624-98.46V211.571l85.326 237.634a5.166 5.166 0 0 1-.231 3.981z" />
</svg>
