<svg xmlns="http://www.w3.org/2000/svg" viewBox="0 0 511.999 511.999" style="enable-background:new 0 0 511.999 511.999" xml:space="preserve">
	<path style="fill:#77757e" d="M4.088 446.1v37.62c0 13.26 10.749 24.01 24.01 24.01h364.01c26.025 0 60.78-4.768 99.809-19.148a21.954 21.954 0 0 0 14.365-20.592v-32.359L4.088 446.1z" />
	<g style="opacity:.51">
		<path style="fill:#57545c" d="M4.088 421.961v37.62c0 13.26 10.749 24.01 24.01 24.01h364.01c26.025 0 60.78-4.768 99.809-19.148a21.954 21.954 0 0 0 14.365-20.592v-32.359L4.088 421.961z" />
	</g>
	<path style="fill:#ffc477" d="m29.755 89.975 13.451 162.648a59.897 59.897 0 0 1-8.156 30.175l-14.246 24.428a123.536 123.536 0 0 0-16.817 62.226v95.02h388.02c29.178 0 69.328-5.993 114.172-24.805l-5.534-51.611c0-33.543-56.921-79.822-79.908-77.101-40.502 4.794-75.823-10.117-104.659-31.593-54.075-40.275-85.241-65.8-85.241-133.227l13.451-56.159-214.533-.001z" />
	<path style="fill:#ffb655" d="M244.319 89.975H29.787l2.954 35.728h203.02z" />
	<path style="fill:#ff9811" d="M40.905 269.319a59.84 59.84 0 0 1-5.754 13.478l-14.246 24.428a123.532 123.532 0 0 0-16.817 62.227v95.02h139.929c-2.058-140.468-86.933-187.467-103.112-195.153z" />
	<path style="fill:#663a00" d="m274.799 195.443-80.574 28.453a2.578 2.578 0 0 1-3.281-1.568l-10.41-29.476a2.578 2.578 0 0 1 1.568-3.281l80.574-28.453a2.578 2.578 0 0 1 3.281 1.568l10.41 29.476a2.578 2.578 0 0 1-1.568 3.281zM301.908 253.251l-60.727 21.445c-6.037 2.131-12.719-1.063-14.851-7.1l-4.371-12.377c-2.131-6.037 1.063-12.719 7.1-14.851l60.727-21.445c6.037-2.131 12.719 1.063 14.852 7.1l4.371 12.377c2.131 6.036-1.064 12.719-7.101 14.851zM349.871 301.195l-57.415 20.275c-6.037 2.131-12.719-1.063-14.851-7.1l-4.371-12.377c-2.131-6.037 1.063-12.719 7.1-14.852l57.415-20.275c6.037-2.131 12.719 1.063 14.852 7.1l4.371 12.377c2.13 6.037-1.065 12.719-7.101 14.852z" />
	<path style="fill:#aa6100" d="M260.91 32.71c0-15.385-9.051-27.856-20.215-27.856H33.41c-11.164 0-20.215 12.471-20.215 27.856v40.195H260.91V32.71z" />
	<path style="fill:#ee8700" d="M13.195 54.369v21.659c0 15.385 9.051 27.856 20.215 27.856h207.285c11.164 0 20.215-12.471 20.215-27.856V54.369H13.195z" />
	<g style="opacity:.07">
		<path style="fill:#663a00" d="M392.006 393.357H3.987v70.889h388.02c29.178 0 69.328-5.992 114.172-24.805l-5.534-51.387c0-6.106-3.646-7.373-4.981-13.053-44.009 18.135-74.93 18.356-103.658 18.356z" />
	</g>
	<path d="M476.983 336.255c-19.852-19.769-46.136-30.604-73.889-30.476-13.235.045-26.493-2.182-39.59-6.648 3.269-4.896 4.296-11.207 2.189-17.173l-4.058-11.494c-1.715-4.856-5.229-8.758-9.894-10.989-4.667-2.232-9.91-2.515-14.766-.8l-26.914 9.504a844.055 844.055 0 0 1-5.981-4.558l1.326-.468c4.856-1.715 8.758-5.229 10.99-9.894 2.231-4.666 2.515-9.91.8-14.766l-4.059-11.495c-3.549-10.049-14.611-15.336-24.661-11.789l-26.421 9.33c-2.916-3.775-5.487-7.581-7.749-11.478l16.491-5.824c10.049-3.549 15.337-14.612 11.789-24.661l-4.058-11.494c-1.715-4.856-5.229-8.758-9.894-10.989-4.666-2.232-9.911-2.515-14.766-.8l-13.412 4.736a181.97 181.97 0 0 1-.386-11.124l11.705-48.874c11.862-.955 21.224-10.907 21.224-23.011V23.093C272.996 10.36 262.637 0 249.902 0H28.933C16.199 0 5.84 10.36 5.84 23.093V81.02c0 12.734 10.36 23.093 23.094 23.093h.377l12.566 151.95a50.72 50.72 0 0 1-6.898 25.221l-10.695 18.339a151.592 151.592 0 0 0-20.619 76.285v62.864c0 1.244.082 2.469.224 3.677a7.712 7.712 0 0 0-.224 1.816v36.653c0 17.137 13.943 31.081 31.081 31.081h354.659c25.171 0 65.419-4.297 114.213-24.767a7.687 7.687 0 0 0 4.714-7.089v-68.405c0-28.544-11.133-55.351-31.349-75.483zm-134.889-63.081a3.846 3.846 0 0 1 1.285-.222c.751 0 1.363.221 1.728.396.556.266 1.559.91 2.028 2.237l4.059 11.494c.713 2.019-.391 4.329-2.411 5.041l-58.749 20.746c-1.323.468-2.457.092-3.014-.173-.557-.267-1.559-.91-2.029-2.237l-4.059-11.494c-.713-2.019.391-4.329 2.411-5.041l2.992-1.057c.092-.015.182-.04.276-.053a7.64 7.64 0 0 0 3-1.104l52.483-18.533zm-48.5-43.466a3.808 3.808 0 0 1 1.274-.217c1.633 0 3.203 1.025 3.768 2.627l4.059 11.495c.468 1.326.092 2.457-.173 3.014-.266.557-.91 1.559-2.237 2.028l-13.655 4.822a7.63 7.63 0 0 0-1.73.611L241.536 269.4c-1.326.468-2.457.092-3.013-.173-.557-.266-1.559-.91-2.029-2.237l-4.059-11.495c-.468-1.326-.092-2.457.173-3.013.265-.557.91-1.559 2.237-2.029l58.749-20.745zm-34.609-55.915a3.846 3.846 0 0 1 1.285-.222c.751 0 1.363.221 1.728.396.556.266 1.559.91 2.028 2.237l4.059 11.494c.713 2.019-.391 4.329-2.411 5.041l-24.81 8.761-.016.006-33.922 11.979c-1.324.468-2.457.092-3.014-.173-.557-.266-1.559-.91-2.029-2.237l-4.059-11.494c-.713-2.019.391-4.329 2.411-5.041l34.521-12.19.015-.001a7.664 7.664 0 0 0 3.002-1.064l21.212-7.492zM28.933 15.376h220.969c4.255 0 7.717 3.462 7.717 7.717v20.078H21.216V23.093c0-4.255 3.462-7.717 7.717-7.717zm-7.717 65.645V58.549H257.62v22.472c0 4.255-3.462 7.717-7.717 7.717H28.933c-4.255 0-7.717-3.463-7.717-7.717zm214.725 23.093L224.9 150.215a7.713 7.713 0 0 0-.211 1.791c0 6.014.256 11.812.755 17.324l-22.401 7.911a7.661 7.661 0 0 0-2.411-.392c-15.099 0-27.382 12.284-27.382 27.383 0 15.1 12.284 27.383 27.382 27.383a27.27 27.27 0 0 0 15.052-4.506c.34-.225.649-.477.941-.742l22.954-8.105a115.62 115.62 0 0 0 7.304 11.635l-8.01 2.829a7.733 7.733 0 0 0-.992-.071c-15.099 0-27.383 12.284-27.383 27.382 0 15.099 12.284 27.383 27.383 27.383 8.043 0 14.752-2.531 19.571-7.332l29.431-10.393a556.222 556.222 0 0 0 5.859 4.601l-10.475 3.7c-6.343 1.425-11.918 5.013-15.862 10.27-4.389 5.851-6.237 13.061-5.203 20.302 1.033 7.24 4.825 13.646 10.676 18.034 4.79 3.593 10.491 5.483 16.375 5.483a27.481 27.481 0 0 0 20.931-9.673l37.632-13.289c18.465 8.054 37.389 12.072 56.343 12.033 23.709-.089 46.042 9.133 62.974 25.995 17.297 17.226 26.823 40.163 26.823 64.587v21.106c-46.73 18.766-84.729 21.633-103.551 21.633h-234.06c-1.698-78.117-29.122-124.833-52.246-150.479-18.705-20.747-37.432-31.314-47.036-35.806a66.029 66.029 0 0 0 1.19-12.432c0-.212-.008-.423-.026-.633L44.739 104.114h191.202zm-216.9 271.795a136.2 136.2 0 0 1 18.525-68.539l10.695-18.339a66.318 66.318 0 0 0 3.101-6.013c8.814 4.381 24.955 14.026 40.932 31.959 29.925 33.588 46.328 81.705 47.659 139.498H34.745c-8.659 0-15.704-7.045-15.704-15.704v-62.862zm370.364 120.715H34.745c-8.659 0-15.704-7.045-15.704-15.704v-15.343a30.884 30.884 0 0 0 15.704 4.276h354.659c23.313 0 59.564-3.695 103.551-20.501v25.637c-46.73 18.766-84.728 21.635-103.55 21.635z" />
</svg>
