<svg xmlns="http://www.w3.org/2000/svg" viewBox="0 0 512 512" style="enable-background:new 0 0 512 512" xml:space="preserve">
	<path style="fill:#00b494" d="M477.775 412.235c0-178.181-173.823-322.629-221.774-322.629-41.961 0-221.776 144.447-221.776 322.629h443.55z" />
	<path style="fill:#fff" d="m136.64 260.446 37.635-28.337 37.89 28.67 37.639-28.337 37.891 28.668 37.641-28.336 37.897 28.667 47.095-35.449a15.614 15.614 0 0 0 3.557-3.763 450.585 450.585 0 0 0-17.361-23.794 15.584 15.584 0 0 0-5.047 2.512l-28.197 21.225-37.898-28.67-37.64 28.336-37.891-28.668-37.639 28.335-37.892-28.669-37.634 28.336-23.207-17.562a458.751 458.751 0 0 0-18.305 25.459l41.466 31.377zM104.758 350.586l48.237-36.318 48.564 36.746 48.244-36.319 48.565 36.745 48.246-36.32 48.572 36.743 57.701-43.431a15.613 15.613 0 0 0 4.065-4.545 364.829 364.829 0 0 0-9.79-23.207 15.64 15.64 0 0 0-13.126 2.707l-38.803 29.207-48.573-36.744-48.244 36.319-48.565-36.746-48.244 36.319-48.566-36.746-48.236 36.318-39.124-29.605c-.101-.076-.209-.138-.311-.212a357.622 357.622 0 0 0-12.496 29.83l51.884 39.259z" />
	<path style="fill:#ed5d51" d="M504.163 457.006c0 13.774-11.11 24.939-24.816 24.939H32.652c-13.706 0-24.815-11.165-24.815-24.939v-49.872c0-13.774 11.11-24.936 24.815-24.936h446.695c13.706 0 24.816 11.164 24.816 24.936v49.872z" />
	<g style="opacity:.2">
		<path style="fill:#414042" d="M50.155 457.006v-49.872c0-13.774 11.11-24.936 24.815-24.936h3.263c16-143.375 141.833-259.564 199.757-286.624-8.776-3.911-16.277-5.967-21.989-5.967-39.577 0-201.774 128.494-220.086 292.592h-3.263c-13.706 0-24.815 11.164-24.815 24.936v49.872c0 13.774 11.11 24.939 24.815 24.939H74.97c-13.705-.001-24.815-11.166-24.815-24.94z" />
	</g>
	<ellipse style="fill:#ed5d51" cx="256" cy="85.096" rx="54.774" ry="55.037" />
	<path style="fill:#636052" d="M483.114 374.585c-11.616-88.164-61.184-158.853-92.263-195.548-23.245-27.445-50.035-52.472-75.436-70.471l-1.057-.743a62.759 62.759 0 0 0 4.252-22.73c0-34.67-28.086-62.876-62.608-62.876s-62.608 28.206-62.608 62.876c0 8.55 1.715 16.704 4.807 24.141-25.171 18.186-51.683 42.915-74.763 69.758-28.403 33.034-51.146 68.167-67.595 104.423-13.791 30.393-22.75 60.92-26.846 91.157C12.706 376.404 0 390.305 0 407.135v49.872c0 18.073 14.648 32.775 32.652 32.775h446.695c18.005 0 32.653-14.703 32.653-32.775v-49.872c0-16.792-12.65-30.668-28.886-32.55zM256 37.892c25.88 0 46.935 21.175 46.935 47.202 0 26.026-21.055 47.2-46.935 47.2s-46.935-21.174-46.935-47.2c0-26.028 21.055-47.202 46.935-47.202zM70.113 289.891c15.835-34.901 37.774-68.774 65.207-100.68 24.507-28.503 49.464-50.835 70.666-66.345 11.436 15.233 29.598 25.102 50.014 25.102 20.925 0 39.471-10.373 50.846-26.256 24.213 17.236 49.777 41.167 72.045 67.457 29.626 34.98 76.737 102.012 88.379 185.194H44.839c4.033-27.976 12.472-56.254 25.274-84.472zm426.214 167.115c0 9.429-7.617 17.102-16.98 17.102H32.652c-9.362 0-16.979-7.673-16.979-17.102v-49.872c0-9.428 7.617-17.1 16.979-17.1h446.695c9.362 0 16.98 7.672 16.98 17.1v49.872z" />
	<g style="opacity:.2">
		<path style="fill:#414042" d="M234.057 85.094c0-24.651 16.128-45.514 38.357-52.522A54.531 54.531 0 0 0 256 30.055c-30.25 0-54.771 24.641-54.771 55.039 0 30.396 24.522 55.037 54.771 55.037 5.719 0 11.232-.884 16.414-2.517-22.229-7.009-38.357-27.872-38.357-52.52z" />
	</g>
</svg>
